<?xml version="1.0" encoding="UTF-8"?>
<svg version="1.1" xmlns="http://www.w3.org/2000/svg" width="50" height="50">
<path d="M0 0 C15.18 0 30.36 0 46 0 C46 11.88 46 23.76 46 36 C40.39 36 34.78 36 29 36 C29 36.66 29 37.32 29 38 C29.74765625 37.94199219 30.4953125 37.88398437 31.265625 37.82421875 C39.36452491 37.45319585 39.36452491 37.45319585 42.6875 40.3125 C44 43 44 43 44 46 C30.14 46 16.28 46 2 46 C3.34682081 40.61271676 3.34682081 40.61271676 6 38 C8.69921875 37.609375 8.69921875 37.609375 11.6875 37.75 C12.68136719 37.78609375 13.67523438 37.8221875 14.69921875 37.859375 C15.45847656 37.90578125 16.21773437 37.9521875 17 38 C17 37.34 17 36.68 17 36 C11.39 36 5.78 36 0 36 C0 24.12 0 12.24 0 0 Z M2 3 C1.89987599 5.20650656 1.8691882 7.41622386 1.8671875 9.625 C1.86623077 10.28709473 1.86527405 10.94918945 1.86428833 11.63134766 C1.86360674 13.03352961 1.86545958 14.4357147 1.86962891 15.83789062 C1.87497754 17.99095713 1.8696833 20.14381502 1.86328125 22.296875 C1.86394204 23.65625046 1.86522321 25.0156258 1.8671875 26.375 C1.86831543 27.62023437 1.86944336 28.86546875 1.87060547 30.1484375 C1.67427873 32.89905431 1.67427873 32.89905431 3 34 C5.9453557 34.10110353 8.8667756 34.13969279 11.8125 34.1328125 C12.69655518 34.13376923 13.58061035 34.13472595 14.49145508 34.13571167 C16.36442129 34.13639351 18.23738986 34.13453893 20.11035156 34.13037109 C22.98768388 34.12502289 25.86486008 34.13031593 28.7421875 34.13671875 C30.55729201 34.13605797 32.37239643 34.13477681 34.1875 34.1328125 C35.48747925 34.13584885 35.48747925 34.13584885 36.8137207 34.13894653 C40.72003219 34.51260414 40.72003219 34.51260414 44 33 C44.10012401 30.79349344 44.1308118 28.58377614 44.1328125 26.375 C44.13376923 25.71290527 44.13472595 25.05081055 44.13571167 24.36865234 C44.13639326 22.96647039 44.13454042 21.5642853 44.13037109 20.16210938 C44.12502246 18.00904287 44.1303167 15.85618498 44.13671875 13.703125 C44.13605796 12.34374954 44.13477679 10.9843742 44.1328125 9.625 C44.13112061 7.75714844 44.13112061 7.75714844 44.12939453 5.8515625 C44.32572127 3.10094569 44.32572127 3.10094569 43 2 C40.0546443 1.89889647 37.1332244 1.86030721 34.1875 1.8671875 C33.30344482 1.86623077 32.41938965 1.86527405 31.50854492 1.86428833 C29.63557871 1.86360649 27.76261014 1.86546107 25.88964844 1.86962891 C23.01231612 1.87497711 20.13513992 1.86968407 17.2578125 1.86328125 C15.44270799 1.86394203 13.62760357 1.86522319 11.8125 1.8671875 C10.51252075 1.86415115 10.51252075 1.86415115 9.1862793 1.86105347 C5.27996781 1.48739586 5.27996781 1.48739586 2 3 Z M19 36 C19 37.32 19 38.64 19 40 C21.64 40 24.28 40 27 40 C27 38.68 27 37.36 27 36 C24.36 36 21.72 36 19 36 Z M6 44 C17.22 44 28.44 44 40 44 C37.61050787 39.87917162 37.61050787 39.87917162 34.95703125 39.609375 C34.24933594 39.65578125 33.54164062 39.7021875 32.8125 39.75 C30.9253125 39.87375 30.9253125 39.87375 29 40 C29 40.66 29 41.32 29 42 C25.04 42 21.08 42 17 42 C17 41.34 17 40.68 17 40 C15.741875 39.9175 14.48375 39.835 13.1875 39.75 C12.47980469 39.70359375 11.77210937 39.6571875 11.04296875 39.609375 C8.38949213 39.87917162 8.38949213 39.87917162 6 44 Z " fill="#000000" transform="translate(2,2)"/>
<path d="M0 0 C12.54 0 25.08 0 38 0 C38 9.24 38 18.48 38 28 C25.46 28 12.92 28 0 28 C0 18.76 0 9.52 0 0 Z M2 2 C2 9.92 2 17.84 2 26 C13.22 26 24.44 26 36 26 C36 18.08 36 10.16 36 2 C24.78 2 13.56 2 2 2 Z " fill="#000000" transform="translate(6,6)"/>
<path d="M0 0 C4.29238623 1.65091778 6.8793915 4.73754566 10 8 C8.34908222 12.29238623 5.26245434 14.8793915 2 18 C1.01 17.67 0.02 17.34 -1 17 C0.29299694 14.11562221 1.65941363 12.12780579 4 10 C2.70700306 7.11562221 1.34058637 5.12780579 -1 3 C-0.67 2.01 -0.34 1.02 0 0 Z " fill="#000000" transform="translate(30,11)"/>
<path d="M0 0 C0.99 0.33 1.98 0.66 3 1 C1.70700306 3.88437779 0.34058637 5.87219421 -2 8 C-0.70700306 10.88437779 0.65941363 12.87219421 3 15 C2.67 15.99 2.34 16.98 2 18 C-2.29238623 16.34908222 -4.8793915 13.26245434 -8 10 C-6.34908222 5.70761377 -3.26245434 3.1206085 0 0 Z " fill="#000000" transform="translate(18,11)"/>
</svg>
